<?xml version="1.0" ?><!DOCTYPE svg  PUBLIC '-//W3C//DTD SVG 1.1//EN'  'http://www.w3.org/Graphics/SVG/1.1/DTD/svg11.dtd'><svg height="138px" style="enable-background:new 0 0 129 138;" version="1.1" viewBox="0 0 129 138" width="129px" xml:space="preserve" xmlns="http://www.w3.org/2000/svg" xmlns:xlink="http://www.w3.org/1999/xlink"><style type="text/css">
<![CDATA[
	.st0{fill:#EF3E42;}
	.st1{fill:#FFFFFF;}
	.st2{fill:none;}
	.st3{fill-rule:evenodd;clip-rule:evenodd;fill:#FFFFFF;}
]]>
</style><defs/><path d="M96.2,110c0-6.8,5.5-12.3,12.3-12.3c6.8,0,12.3,5.5,12.3,12.3c0,6.8-5.5,12.3-12.3,12.3C101.7,122.3,96.2,116.8,96.2,110  L96.2,110z M102.3,110c0,3.4,2.8,6.2,6.2,6.2c3.4,0,6.2-2.8,6.2-6.2c0-3.4-2.8-6.2-6.2-6.2C105.1,103.8,102.3,106.6,102.3,110  L102.3,110z M105,44.4v8.2h11.2v-8.2H105L105,44.4z M105,57.2v8.2h11.2v-8.2H105L105,57.2z M105,70v8.2h11.2V70H105L105,70z   M105,82.9V91c5.3,0,9.6-3.5,10.8-8.2H105L105,82.9z M100.3,91v-8.2h-14V91H100.3L100.3,91z M100.3,78.2V70h-14v8.2H100.3  L100.3,78.2z M100.3,65.4v-8.2h-14v8.2H100.3L100.3,65.4z M100.3,52.5v-8.2h-14v8.2H100.3L100.3,52.5z M48.9,44.4v8.2h14v-8.2H48.9  L48.9,44.4z M48.9,57.2v8.2h14v-8.2H48.9L48.9,57.2z M48.9,70v8.2h14V70H48.9L48.9,70z M48.9,82.9V91h14v-8.2H48.9L48.9,82.9z   M44.3,91v-8.2H33.4C34.7,87.6,38.9,91,44,91H44.3L44.3,91z M44.3,78.2V70H33.1v8.2H44.3L44.3,78.2z M44.3,65.4v-8.2H33.1v8.2H44.3  L44.3,65.4z M44.3,52.5v-8.2H33.1v8.2H44.3L44.3,52.5z M67.6,44.4v8.2h14v-8.2H67.6L67.6,44.4z M67.6,57.2v8.2h14v-8.2H67.6  L67.6,57.2z M67.6,70v8.2h14V70H67.6L67.6,70z M67.6,82.9V91h14v-8.2H67.6L67.6,82.9z M33.1,39.7h87.8v40.4c0,8.6-7,15.6-15.6,15.6  H44c-8.6,0-15.6-7-15.6-15.6V23.3h-5.8c0,2-1.5,3.5-3.3,3.5H8.1c-1.8,0-3.3-1.5-3.3-3.3v-5c0-1.8,1.5-3.3,3.3-3.3h11.2  c1.8,0,3.3,1.5,3.3,3.3h10.4V39.7L33.1,39.7z M34.6,110c0,3.4,2.8,6.2,6.2,6.2c3.4,0,6.2-2.8,6.2-6.2c0-3.4-2.8-6.2-6.2-6.2  C37.3,103.8,34.6,106.6,34.6,110L34.6,110z M28.4,110c0-6.8,5.5-12.3,12.3-12.3c6.8,0,12.3,5.5,12.3,12.3c0,6.8-5.5,12.3-12.3,12.3  C33.9,122.3,28.4,116.8,28.4,110L28.4,110z"/><rect class="st2" height="138" id="_x3C_Slice_x3E__100_" width="129"/></svg>